<svg xmlns="http://www.w3.org/2000/svg" viewBox="0 0 32 32" width="32" height="32"><metadata><rdf:RDF xmlns:rdf="http://www.w3.org/1999/02/22-rdf-syntax-ns#" xmlns:dc="http://purl.org/dc/elements/1.1/"><rdf:Description><dc:creator>RealFaviconGenerator</dc:creator><dc:source>https://realfavicongenerator.net</dc:source></rdf:Description></rdf:RDF></metadata><rect x="5" y="14" width="22" height="13" rx="2" fill="#ec008b"></rect><rect x="8" y="17" width="2.5" height="2.5" rx=".5" fill="#27262A" opacity=".5"></rect><rect x="8" y="21.5" width="2.5" height="2.5" rx=".5" fill="#27262A" opacity=".5"></rect><rect x="21.5" y="17" width="2.5" height="2.5" rx=".5" fill="#27262A" opacity=".5"></rect><rect x="21.5" y="21.5" width="2.5" height="2.5" rx=".5" fill="#27262A" opacity=".5"></rect><rect x="5" y="8" width="22" height="6" rx="2" fill="#ffffff"></rect><clipPath id="topclip">
    <rect x="5" y="8" width="22" height="6" rx="2"></rect>
  </clipPath><g clip-path="url(#topclip)">
    <polygon points="5,8 10,8 5,14" fill="#27262A"></polygon>
    <polygon points="11,8 16,8 11,14 6,14" fill="#27262A"></polygon>
    <polygon points="17,8 22,8 17,14 12,14" fill="#27262A"></polygon>
    <polygon points="23,8 27,8 23,14 18,14" fill="#27262A"></polygon>
  </g><style>@media (prefers-color-scheme: light) { :root { filter: none; } }
@media (prefers-color-scheme: dark) { :root { filter: none; } }
</style></svg>