<svg width="15" height="16" viewBox="0 0 15 16" fill="none" xmlns="http://www.w3.org/2000/svg">
    <path d="M13.6241 6.62414H8.87639V1.87537C8.87644 1.11692 8.25923 0.5 7.5 0.5C6.74077 0.5 6.12361 1.11692 6.12361 1.87537V6.62414H1.37639C0.617457 6.62414 0 7.2416 0 8C0 8.75816 0.617214 9.37537 1.37639 9.37537H6.12361V14.1241C6.12361 14.8828 6.74053 15.5 7.5 15.5C8.25923 15.5 8.87639 14.8828 8.87639 14.1241V9.37537H13.6241C14.3828 9.37537 15 8.75816 15 8C15 7.2416 14.3828 6.62414 13.6241 6.62414Z"
          fill="currentColor"/>
</svg>
