<svg width="25" height="32" viewBox="0 0 25 32" fill="none" xmlns="http://www.w3.org/2000/svg">
<path d="M2.48612 4.5176C2.3871 4.27582 2.33265 4.01095 2.33265 3.73372C2.33265 2.59336 3.25684 1.66838 4.39799 1.66838C4.9698 1.66838 5.48716 1.90109 5.86176 2.2765C6.22976 1.20546 7.2455 0.434808 8.44195 0.434808C9.25309 0.434808 9.98166 0.788779 10.4808 1.35152C10.7722 0.56274 11.5304 0 12.42 0C13.3606 0 14.1536 0.629553 14.4036 1.48937C14.9028 0.848243 15.6818 0.434869 16.5572 0.434869C17.7536 0.434869 18.7702 1.20552 19.1382 2.27656C19.512 1.90109 20.0294 1.66844 20.602 1.66844C21.7424 1.66844 22.6673 2.59342 22.6673 3.73378C22.6673 4.01101 22.612 4.27588 22.513 4.51766C23.9067 4.63977 25 5.80898 25 7.23484C25 7.94443 24.7285 8.59138 24.2838 9.07653L20.1738 13.9671L13.7377 15.7824L6.06398 13.7196L2.35084 12.4819L0.715412 9.07653C0.271479 8.59132 0 7.94443 0 7.23484C0 5.80898 1.09247 4.63977 2.48612 4.5176Z" fill="#F7B239"/>
<path d="M24.2839 9.07642H20.1895H4.80978H0.715482H0.689087L3.44504 31.3551H6.60364H18.3948H21.5543L24.3103 9.07642H24.2839Z" fill="#F95428"/>
<path d="M20.1894 9.07635L18.3948 31.355H14.7139L14.9383 23.9453C16.1538 23.1498 16.2495 17.4523 15.1586 16.6403L15.1594 16.6395L15.3879 9.07629L20.1894 9.07635Z" fill="#F2F2F2"/>
<path d="M10.0617 23.9464L10.2853 31.3553H6.60355L4.80969 9.07666H9.61199L9.84054 16.639L9.84134 16.6398C8.75058 17.4517 8.8463 23.151 10.0617 23.9464Z" fill="#F2F2F2"/>
<path d="M8.42689 4.51759C8.32786 4.27582 8.27342 4.01095 8.27342 3.73372C8.27342 2.59335 9.1976 1.66838 10.3388 1.66838C10.9106 1.66838 11.4279 1.90109 11.8025 2.2765C12.1058 1.39396 12.8494 0.716515 13.771 0.50499C13.4088 0.191009 12.9371 0 12.42 0C11.5305 0 10.7722 0.56274 10.481 1.35158C9.98172 0.78884 9.25315 0.434869 8.44207 0.434869C7.24562 0.434869 6.22988 1.20552 5.86189 2.27656C5.48728 1.90109 4.96992 1.66844 4.39811 1.66844C3.25696 1.66844 2.33278 2.59342 2.33278 3.73378C2.33278 4.01101 2.38722 4.27588 2.48624 4.51766C1.09259 4.63977 0.00012207 5.80898 0.00012207 7.23484C0.00012207 7.94443 0.271602 8.59138 0.715535 9.07653H4.80983H6.65618C6.21224 8.59132 5.94077 7.94443 5.94077 7.23484C5.9407 5.80898 7.03317 4.63977 8.42689 4.51759Z" fill="#F7B239"/>
<path d="M4.80978 9.07642L6.60364 31.3551H3.44504L0.689087 9.07642H0.715482H4.80978Z" fill="#F95428"/>
<path d="M15.1584 16.6403C16.2493 17.4522 16.9556 18.751 16.9556 20.2156C16.9556 21.7768 16.1536 23.1498 14.9382 23.9452C14.2376 24.4049 13.3993 24.6714 12.4991 24.6714C11.5997 24.6714 10.7613 24.4049 10.0616 23.9461C8.8462 23.1506 8.04333 21.7768 8.04333 20.2156C8.04333 18.751 8.75048 17.4514 9.8413 16.6395C10.5831 16.0867 11.5031 15.7599 12.4991 15.7599C13.495 15.7598 14.4158 16.0874 15.1584 16.6403Z" fill="#F7B239"/>
</svg>
