<svg width="426" height="426" viewBox="0 0 426 426" fill="none" xmlns="http://www.w3.org/2000/svg">
    <path d="M266.031 213L414.469 64.5625C421.514 57.5301 425.476 47.9872 425.485 38.0331C425.494 28.0791 421.548 18.5292 414.516 11.4844C407.483 4.43955 397.94 0.476879 387.986 0.468089C378.032 0.459298 368.482 4.40511 361.438 11.4375L213 159.875L64.5626 11.4375C57.5178 4.39268 47.963 0.434937 38.0001 0.434937C28.0372 0.434937 18.4824 4.39268 11.4376 11.4375C4.3928 18.4823 0.435059 28.0371 0.435059 38C0.435059 47.9629 4.3928 57.5177 11.4376 64.5625L159.875 213L11.4376 361.437C4.3928 368.482 0.435059 378.037 0.435059 388C0.435059 397.963 4.3928 407.518 11.4376 414.562C18.4824 421.607 28.0372 425.565 38.0001 425.565C47.963 425.565 57.5178 421.607 64.5626 414.562L213 266.125L361.438 414.562C368.482 421.607 378.037 425.565 388 425.565C397.963 425.565 407.518 421.607 414.563 414.562C421.607 407.518 425.565 397.963 425.565 388C425.565 378.037 421.607 368.482 414.563 361.437L266.031 213Z"
          fill="currentColor"/>
</svg>
