<svg width="27" height="26" viewBox="0 0 27 26" fill="none" xmlns="http://www.w3.org/2000/svg">
    <path d="M17.8493 10.7795L14.8723 13.7703L14.8723 1.30014C14.8723 0.955276 14.7354 0.624535 14.4916 0.380676C14.2478 0.136818 13.9171 -0.000179291 13.5723 -0.000179291C13.2275 -0.000179291 12.8969 0.136818 12.6531 0.380676C12.4093 0.624535 12.2723 0.955276 12.2723 1.30014L12.2723 13.7703L9.29532 10.7795C9.17447 10.6576 9.03069 10.5609 8.87227 10.4949C8.71385 10.4289 8.54393 10.3949 8.37232 10.3949C8.2007 10.3949 8.03078 10.4289 7.87237 10.4949C7.71395 10.5609 7.57017 10.6576 7.44932 10.7795C7.32747 10.9004 7.23076 11.0442 7.16476 11.2027C7.09876 11.3611 7.06478 11.5311 7.06478 11.7027C7.06478 11.8744 7.09876 12.0444 7.16476 12.2028C7.23076 12.3613 7.32747 12.5051 7.44932 12.626L12.6493 17.8273C12.773 17.9456 12.9187 18.0384 13.0783 18.1003C13.3948 18.2304 13.7498 18.2304 14.0663 18.1003C14.2259 18.0384 14.3717 17.9456 14.4953 17.8273L19.6953 12.626C19.8165 12.5047 19.9127 12.3608 19.9783 12.2024C20.0439 12.044 20.0776 11.8742 20.0776 11.7027C20.0776 11.5313 20.0439 11.3615 19.9783 11.2031C19.9127 11.0447 19.8165 10.9007 19.6953 10.7795C19.5741 10.6583 19.4302 10.5621 19.2718 10.4965C19.1135 10.4309 18.9437 10.3971 18.7723 10.3971C18.6009 10.3971 18.4312 10.4309 18.2728 10.4965C18.1144 10.5621 17.9705 10.6583 17.8493 10.7795Z"
          fill="currentColor"/>
    <path d="M25.2 15.5977C24.8552 15.5977 24.5246 15.7347 24.2808 15.9785C24.037 16.2224 23.9 16.5531 23.9 16.898V22.0993C23.9 22.4441 23.763 22.7749 23.5192 23.0187C23.2754 23.2626 22.9448 23.3996 22.6 23.3996H4.4C4.05522 23.3996 3.72456 23.2626 3.48076 23.0187C3.23696 22.7749 3.1 22.4441 3.1 22.0993V16.898C3.1 16.5531 2.96304 16.2224 2.71924 15.9785C2.47544 15.7347 2.14478 15.5977 1.8 15.5977C1.45522 15.5977 1.12456 15.7347 0.880761 15.9785C0.636964 16.2224 0.5 16.5531 0.5 16.898V22.0993C0.5 23.1339 0.910892 24.1261 1.64228 24.8577C2.37368 25.5893 3.36566 26.0002 4.4 26.0002H22.6C23.6343 26.0002 24.6263 25.5893 25.3577 24.8577C26.0891 24.1261 26.5 23.1339 26.5 22.0993V16.898C26.5 16.5531 26.363 16.2224 26.1192 15.9785C25.8754 15.7347 25.5448 15.5977 25.2 15.5977Z"
          fill="currentColor"/>
</svg>
