<svg width="28" height="22" viewBox="0 0 28 22" fill="none" xmlns="http://www.w3.org/2000/svg">
    <path d="M2.5 1.5C1.39543 1.5 0.5 2.39543 0.5 3.5V8.2C0.5 8.5866 0.81923 8.89244 1.19994 8.96094C2.30557 9.16003 3.15 10.1252 3.15 11.2867C3.15 12.4482 2.30557 13.4133 1.19994 13.6124C0.81923 13.6809 0.5 13.9868 0.5 14.3733V19.0733C0.5 20.1779 1.39543 21.0733 2.5 21.0733H25.5C26.6046 21.0733 27.5 20.1779 27.5 19.0733V14.3733C27.5 13.9868 27.1808 13.6809 26.8001 13.6124C25.6944 13.4133 24.85 12.4482 24.85 11.2867C24.85 10.1252 25.6944 9.16003 26.8001 8.96094C27.1808 8.89244 27.5 8.5866 27.5 8.2V3.5C27.5 2.39543 26.6046 1.5 25.5 1.5H2.5ZM18.5 4.5C18.7761 4.5 19 4.72386 19 5V6.5C19 6.77614 18.7761 7 18.5 7C18.2239 7 18 6.77614 18 6.5V5C18 4.72386 18.2239 4.5 18.5 4.5ZM18.5 9.5C18.7761 9.5 19 9.72386 19 10V12.5C19 12.7761 18.7761 13 18.5 13C18.2239 13 18 12.7761 18 12.5V10C18 9.72386 18.2239 9.5 18.5 9.5ZM18.5 15.5C18.7761 15.5 19 15.7239 19 16V17.5C19 17.7761 18.7761 18 18.5 18C18.2239 18 18 17.7761 18 17.5V16C18 15.7239 18.2239 15.5 18.5 15.5Z"
          fill="currentColor"/>
</svg>
