<svg width="34" height="22" viewBox="0 0 34 22" fill="none" xmlns="http://www.w3.org/2000/svg">
    <path d="M17 6.68978C19.1667 6.68978 20.9231 8.48686 20.9231 10.7037C20.9231 12.9205 19.1667 14.7175 17 14.7175C14.8333 14.7175 13.077 12.9205 13.077 10.7037C13.077 8.48686 14.8334 6.68978 17 6.68978ZM17 0C26.1539 0 34 6.68978 34 10.7037C34 14.7175 26.1539 21.4074 17 21.4074C7.84615 21.4074 0 14.7175 0 10.7037C0 6.68978 7.84615 0 17 0ZM17 3.34493C13.0278 3.34493 9.8077 6.63959 9.8077 10.7037C9.8077 14.7678 13.0278 18.0625 17 18.0625C20.9722 18.0625 24.1923 14.7678 24.1923 10.7037C24.1923 6.63959 20.9722 3.34493 17 3.34493Z"
          fill="currentColor"/>
</svg>
