<svg width="672" height="672" viewBox="0 0 672 672" fill="none" xmlns="http://www.w3.org/2000/svg">
<path d="M300.094 539.732C300.094 559.563 316.169 575.638 336 575.638C355.831 575.638 371.906 559.563 371.906 539.732C371.906 519.901 355.831 503.826 336 503.826C316.169 503.826 300.094 519.901 300.094 539.732Z" fill="black"/>
<path d="M336 671.125C151.202 671.125 0.875 520.797 0.875 336C0.875 151.202 151.202 0.875 336 0.875C520.797 0.875 671.125 151.202 671.125 336C671.125 520.797 520.797 671.125 336 671.125ZM336 48.9647C177.725 48.9647 48.9647 177.725 48.9647 336C48.9647 494.251 177.725 623.035 336 623.035C494.251 623.035 623.035 494.252 623.035 336C623.035 177.725 494.251 48.9647 336 48.9647Z" fill="black"/>
<path d="M336 456.955C322.786 456.955 312.062 446.231 312.062 433.019V392.54C312.062 353.378 341.984 323.457 368.411 297.054C387.775 277.664 407.812 257.653 407.812 241.686C407.812 201.782 375.592 169.323 336 169.323C295.738 169.323 264.188 200.394 264.188 240.058C264.188 253.272 253.464 263.995 240.25 263.995C227.036 263.995 216.312 253.271 216.312 240.058C216.312 174.661 270.003 121.448 336 121.448C401.997 121.448 455.688 175.379 455.688 241.686C455.688 277.521 428.518 304.665 402.259 330.925C381.433 351.703 359.938 373.199 359.938 392.516V432.994C359.938 446.208 349.214 456.955 336 456.955Z" fill="black"/>
</svg>
