<svg width="34" height="22" viewBox="0 0 34 22" fill="none" xmlns="http://www.w3.org/2000/svg">
    <path d="M17 1.25C21.2812 1.25 25.2856 2.81934 28.2158 4.87065C29.6789 5.8949 30.8409 7.01632 31.6249 8.07969C32.4273 9.16797 32.75 10.0786 32.75 10.7037C32.75 11.3287 32.4273 12.2394 31.6249 13.3277C30.8409 14.391 29.6789 15.5125 28.2158 16.5367C25.2856 18.588 21.2812 20.1574 17 20.1574C12.7188 20.1574 8.71441 18.588 5.78417 16.5367C4.32106 15.5125 3.15911 14.391 2.37508 13.3277C1.57267 12.2394 1.25 11.3287 1.25 10.7037C1.25 10.0786 1.57267 9.16797 2.37508 8.07969C3.15911 7.01632 4.32105 5.8949 5.78417 4.87065C8.71441 2.81934 12.7188 1.25 17 1.25ZM17 2.09493C12.3107 2.09493 8.5577 5.97635 8.5577 10.7037C8.5577 15.4311 12.3107 19.3125 17 19.3125C21.6893 19.3125 25.4423 15.4311 25.4423 10.7037C25.4423 5.97635 21.6893 2.09493 17 2.09493Z"
          stroke="currentColor" stroke-width="2.5"/>
</svg>
